<?xml version="1.0" encoding="UTF-8" standalone="no"?>
<!-- Svg Vector Icons : http://www.onlinewebfonts.com/icon -->

<svg
   xmlns:dc="http://purl.org/dc/elements/1.1/"
   xmlns:cc="http://creativecommons.org/ns#"
   xmlns:rdf="http://www.w3.org/1999/02/22-rdf-syntax-ns#"
   xmlns:svg="http://www.w3.org/2000/svg"
   xmlns="http://www.w3.org/2000/svg"
   xmlns:sodipodi="http://sodipodi.sourceforge.net/DTD/sodipodi-0.dtd"
   xmlns:inkscape="http://www.inkscape.org/namespaces/inkscape"
   version="1.1"
   x="0px"
   y="0px"
   viewBox="0 0 1000 1000"
   enable-background="new 0 0 1000 1000"
   xml:space="preserve"
   id="svg12"
   sodipodi:docname="womanCircle.svg"
   inkscape:version="0.92.2 5c3e80d, 2017-08-06"><defs
     id="defs16" /><sodipodi:namedview
     pagecolor="#ffffff"
     bordercolor="#666666"
     borderopacity="1"
     objecttolerance="10"
     gridtolerance="10"
     guidetolerance="10"
     inkscape:pageopacity="0"
     inkscape:pageshadow="2"
     inkscape:window-width="1440"
     inkscape:window-height="799"
     id="namedview14"
     showgrid="false"
     inkscape:zoom="0.236"
     inkscape:cx="500"
     inkscape:cy="500"
     inkscape:window-x="0"
     inkscape:window-y="1"
     inkscape:window-maximized="1"
     inkscape:current-layer="g10" /><metadata
     id="metadata2"> Svg Vector Icons : http://www.onlinewebfonts.com/icon <rdf:RDF><cc:Work
     rdf:about=""><dc:format>image/svg+xml</dc:format><dc:type
       rdf:resource="http://purl.org/dc/dcmitype/StillImage" /></cc:Work></rdf:RDF></metadata><g
     id="g10"><g
       transform="translate(0.000000,511.000000) scale(0.100000,-0.100000)"
       id="g8"
       style="fill:#1e88e5;fill-opacity:1"><path
         d="M4774,5008.5c-1037.9-49.4-2066.3-440.1-2859.5-1082.6c-211.8-174.2-588.4-550.7-755.5-760.2c-308.3-386-609.6-924.9-779-1398C182.4,1212.3,100,720.4,100,106.2c0-616.6,82.4-1108.5,280.1-1659.2c418.9-1174.4,1301.5-2167.5,2417-2725.3c706-350.7,1388.5-513,2191.1-515.4c812,0,1513.3,164.7,2233.4,529.5c755.4,383.6,1430.9,988.5,1889.9,1694.5c160,247.1,381.2,682.5,484.8,964.9c341.3,913.1,397.7,1984,155.3,2927.7C9445.6,2504.4,8709,3537.5,7692.3,4208.3C6854.5,4759,5769.5,5057.9,4774,5008.5z M5786,4107.1c609.6-129.4,1197.9-393,1671-750.8c183.6-136.5,574.2-517.8,717.8-696.6c480.1-604.9,779-1317.9,873.1-2092.2c40-322.4,14.2-943.7-49.4-1249.7c-268.3-1275.6-1059.1-2294.6-2233.4-2883c-475.4-237.7-1026.1-371.8-1605.1-393c-731.9-25.9-1355.6,105.9-1984,421.3c-649.6,324.8-1237.9,854.3-1621.5,1461.5c-242.4,381.3-458.9,917.9-557.8,1393.3c-63.5,303.6-87.1,920.2-49.4,1252c197.7,1701.6,1440.3,3099.5,3108.9,3499.6c376.6,91.8,536.6,105.9,1035.5,96.5C5444.7,4158.9,5604.8,4144.7,5786,4107.1z"
         id="path4"
         style="fill:#1e88e5;fill-opacity:1" /><path
         d="M4656.3,3328.1c-315.4-51.8-654.3-230.6-842.5-447.2c-291.8-334.2-416.6-807.2-416.6-1598c0-609.5-51.8-948.4-185.9-1235.6c-84.7-181.2-176.5-289.5-289.5-341.3l-89.4-40l65.9-58.8c221.2-207.1,739-371.8,1176.7-371.8h122.4v-160c0-190.6-11.8-204.8-240.1-310.7c-145.9-65.9-317.7-122.4-1007.3-338.9c-313-98.8-623.7-244.7-701.3-327.1l-54.1-58.8l115.3-136.5c517.8-621.3,1223.8-1035.5,2040.5-1202.6c329.5-65.9,1026.1-58.8,1348.6,11.8c487.1,108.3,870.8,270.7,1254.4,527.2c228.3,153,593.1,484.8,755.5,689.6l94.1,115.3l-89.4,77.7c-120,101.2-444.8,233-934.3,383.6c-475.4,143.6-656.6,209.4-842.6,308.3l-138.9,75.3v171.8V-767l101.2,11.8c54.1,7.1,169.4,18.8,256.5,25.9c324.7,25.9,826.1,207.1,946.1,338.9c40,44.7,40,47.1-25.9,80c-98.9,54.1-254.2,225.9-320.1,357.7c-117.7,235.3-122.4,275.4-122.4,1141.4c0,903.7-11.8,1000.2-164.7,1334.4c-155.3,338.9-397.7,517.8-734.3,541.3c-145.9,9.4-195.4,23.5-242.4,65.9c-91.8,82.4-282.4,169.5-435.4,197.7C4901.1,3356.3,4825.8,3356.3,4656.3,3328.1z"
         id="path6"
         style="fill:#1e88e5;fill-opacity:1" /></g></g></svg>